# xmcd
#
# Track frame offsets: 
#        150
#        7258
#        28784
#        53163
#        77915
#        94962
#        129254
#        152815
#        173202
#        211216
#        240382
#        259584
#        290660
#
# Disc length: 4151 seconds
#
# Revision: 1
# Processed by: cddbd v1.5.2PL0 Copyright (c) Steve Scherf et al.
# Submitted via: ExactAudioCopy v0.99pb4
#
DISCID=b010350d
DTITLE=Bruce Springsteen - Fairfax, 5-14-05(Drewcatc version-Disc 1)
DYEAR=2005
DGENRE=Rock and Roll
TTITLE0=intro
TTITLE1=My Beautifull Reward
TTITLE2=Reason to Believe
TTITLE3=Devils and Dust
TTITLE4=Lonesome Day
TTITLE5=The Ghost of Tom Joad
TTITLE6=Long Time Comin'
TTITLE7=Black Cowboys
TTITLE8=Silver Palomino
TTITLE9=The River
TTITLE10=Wreck on the Highway
TTITLE11=Part Man, Part Monkey
TTITLE12=Maria's Bed
EXTD=
EXTT0=
EXTT1=
EXTT2=
EXTT3=
EXTT4=
EXTT5=
EXTT6=
EXTT7=
EXTT8=
EXTT9=
EXTT10=
EXTT11=
EXTT12=
PLAYORDER=
